<?xml version="1.0" encoding="utf-8" standalone="no"?>
<!DOCTYPE svg PUBLIC "-//W3C//DTD SVG 1.1//EN"
  "http://www.w3.org/Graphics/SVG/1.1/DTD/svg11.dtd">
<svg xmlns:xlink="http://www.w3.org/1999/xlink" width="504pt" height="288pt" viewBox="0 0 504 288" xmlns="http://www.w3.org/2000/svg" version="1.1">
 <metadata>
  <rdf:RDF xmlns:dc="http://purl.org/dc/elements/1.1/" xmlns:cc="http://creativecommons.org/ns#" xmlns:rdf="http://www.w3.org/1999/02/22-rdf-syntax-ns#">
   <cc:Work>
    <dc:type rdf:resource="http://purl.org/dc/dcmitype/StillImage"/>
    <dc:date>2025-11-18T12:15:15.838261</dc:date>
    <dc:format>image/svg+xml</dc:format>
    <dc:creator>
     <cc:Agent>
      <dc:title>Matplotlib v3.7.2, https://matplotlib.org/</dc:title>
     </cc:Agent>
    </dc:creator>
   </cc:Work>
  </rdf:RDF>
 </metadata>
 <defs>
  <style type="text/css">*{stroke-linejoin: round; stroke-linecap: butt}</style>
 </defs>
 <g id="figure_1">
  <g id="patch_1">
   <path d="M 0 288 
L 504 288 
L 504 0 
L 0 0 
z
" style="fill: #ffffff"/>
  </g>
  <g id="axes_1">
   <g id="patch_2">
    <path d="M 52.074559 243.43532 
L 262.795133 243.43532 
L 262.795133 33.984291 
L 52.074559 33.984291 
z
" style="fill: #ffffff"/>
   </g>
   <g id="patch_3">
    <path d="M 90.332566 243.43532 
L 90.332566 229.278875 
L 96.807015 229.278875 
L 96.807015 237.000572 
L 103.281464 237.000572 
L 103.281464 234.426673 
L 109.755912 234.426673 
L 109.755912 231.852774 
L 116.230361 231.852774 
L 116.230361 220.270229 
L 122.704809 220.270229 
L 122.704809 212.548532 
L 129.179258 212.548532 
L 129.179258 211.261582 
L 135.653706 211.261582 
L 135.653706 177.800896 
L 142.128155 177.800896 
L 142.128155 104.444775 
L 148.602603 104.444775 
L 148.602603 43.958149 
L 155.077052 43.958149 
L 155.077052 105.731725 
L 161.551501 105.731725 
L 161.551501 191.95734 
L 168.025949 191.95734 
L 168.025949 217.69633 
L 174.500398 217.69633 
L 174.500398 229.278875 
L 180.974846 229.278875 
L 180.974846 222.844128 
L 187.449295 222.844128 
L 187.449295 230.565825 
L 193.923743 230.565825 
L 193.923743 233.139724 
L 200.398192 233.139724 
L 200.398192 237.000572 
L 206.87264 237.000572 
L 206.87264 238.287522 
L 213.347089 238.287522 
L 213.347089 235.713623 
L 219.821537 235.713623 
L 219.821537 243.43532 
L 213.347089 243.43532 
L 213.347089 243.43532 
L 206.87264 243.43532 
L 206.87264 243.43532 
L 200.398192 243.43532 
L 200.398192 243.43532 
L 193.923743 243.43532 
L 193.923743 243.43532 
L 187.449295 243.43532 
L 187.449295 243.43532 
L 180.974846 243.43532 
L 180.974846 243.43532 
L 174.500398 243.43532 
L 174.500398 243.43532 
L 168.025949 243.43532 
L 168.025949 243.43532 
L 161.551501 243.43532 
L 161.551501 243.43532 
L 155.077052 243.43532 
L 155.077052 243.43532 
L 148.602603 243.43532 
L 148.602603 243.43532 
L 142.128155 243.43532 
L 142.128155 243.43532 
L 135.653706 243.43532 
L 135.653706 243.43532 
L 129.179258 243.43532 
L 129.179258 243.43532 
L 122.704809 243.43532 
L 122.704809 243.43532 
L 116.230361 243.43532 
L 116.230361 243.43532 
L 109.755912 243.43532 
L 109.755912 243.43532 
L 103.281464 243.43532 
L 103.281464 243.43532 
L 96.807015 243.43532 
L 96.807015 243.43532 
z
" clip-path="url(#pbe9c4b44e3)" style="fill: #1f77b4; opacity: 0.7"/>
   </g>
   <g id="matplotlib.axis_1">
    <g id="xtick_1">
     <g id="line2d_1">
      <defs>
       <path id="m5c0a48d314" d="M 0 0 
L 0 -3.5 
" style="stroke: #000000; stroke-width: 0.8"/>
      </defs>
      <g>
       <use xlink:href="#m5c0a48d314" x="64.573468" y="243.43532" style="stroke: #000000; stroke-width: 0.8"/>
      </g>
     </g>
     <g id="text_1">
      <!-- $\mathdefault{0.0}$ -->
      <g transform="translate(56.471412 255.929348) scale(0.13 -0.13)">
       <defs>
        <path id="CMR17-30" d="M 2688 2038 
C 2688 2430 2682 3099 2413 3613 
C 2176 4063 1798 4224 1466 4224 
C 1158 4224 768 4082 525 3620 
C 269 3137 243 2539 243 2038 
C 243 1671 250 1112 448 623 
C 723 -39 1216 -128 1466 -128 
C 1760 -128 2208 -7 2470 604 
C 2662 1048 2688 1568 2688 2038 
z
M 1466 -26 
C 1056 -26 813 328 723 816 
C 653 1196 653 1749 653 2109 
C 653 2604 653 3015 736 3407 
C 858 3954 1216 4121 1466 4121 
C 1728 4121 2067 3947 2189 3420 
C 2272 3054 2278 2623 2278 2109 
C 2278 1691 2278 1176 2202 797 
C 2067 96 1690 -26 1466 -26 
z
" transform="scale(0.015625)"/>
        <path id="CMMI12-3a" d="M 1178 307 
C 1178 492 1024 620 870 620 
C 685 620 557 467 557 313 
C 557 128 710 0 864 0 
C 1050 0 1178 153 1178 307 
z
" transform="scale(0.015625)"/>
       </defs>
       <use xlink:href="#CMR17-30" transform="scale(0.996264)"/>
       <use xlink:href="#CMMI12-3a" transform="translate(45.690477 0) scale(0.996264)"/>
       <use xlink:href="#CMR17-30" transform="translate(72.787654 0) scale(0.996264)"/>
      </g>
     </g>
    </g>
    <g id="xtick_2">
     <g id="line2d_2">
      <g>
       <use xlink:href="#m5c0a48d314" x="112.604194" y="243.43532" style="stroke: #000000; stroke-width: 0.8"/>
      </g>
     </g>
     <g id="text_2">
      <!-- $\mathdefault{2.5}$ -->
      <g transform="translate(104.502138 255.929348) scale(0.13 -0.13)">
       <defs>
        <path id="CMR17-32" d="M 2669 990 
L 2554 990 
C 2490 537 2438 460 2413 422 
C 2381 371 1920 371 1830 371 
L 602 371 
C 832 620 1280 1073 1824 1596 
C 2214 1966 2669 2400 2669 3033 
C 2669 3788 2067 4224 1395 4224 
C 691 4224 262 3603 262 3027 
C 262 2777 448 2745 525 2745 
C 589 2745 781 2783 781 3007 
C 781 3206 614 3264 525 3264 
C 486 3264 448 3257 422 3244 
C 544 3788 915 4057 1306 4057 
C 1862 4057 2227 3616 2227 3033 
C 2227 2477 1901 1998 1536 1583 
L 262 147 
L 262 0 
L 2515 0 
L 2669 990 
z
" transform="scale(0.015625)"/>
        <path id="CMR17-35" d="M 730 3750 
C 794 3724 1056 3641 1325 3641 
C 1920 3641 2246 3961 2432 4140 
C 2432 4191 2432 4224 2394 4224 
C 2387 4224 2374 4224 2323 4198 
C 2099 4102 1837 4032 1517 4032 
C 1325 4032 1037 4055 723 4191 
C 653 4224 640 4224 634 4224 
C 602 4224 595 4217 595 4090 
L 595 2231 
C 595 2113 595 2080 659 2080 
C 691 2080 704 2093 736 2139 
C 941 2435 1222 2560 1542 2560 
C 1766 2560 2246 2415 2246 1293 
C 2246 1087 2246 716 2054 422 
C 1894 159 1645 25 1370 25 
C 947 25 518 319 403 812 
C 429 806 480 793 506 793 
C 589 793 749 838 749 1036 
C 749 1209 627 1280 506 1280 
C 358 1280 262 1190 262 1011 
C 262 454 704 -128 1382 -128 
C 2042 -128 2669 441 2669 1267 
C 2669 2054 2170 2662 1549 2662 
C 1222 2662 947 2540 730 2304 
L 730 3750 
z
" transform="scale(0.015625)"/>
       </defs>
       <use xlink:href="#CMR17-32" transform="scale(0.996264)"/>
       <use xlink:href="#CMMI12-3a" transform="translate(45.690477 0) scale(0.996264)"/>
       <use xlink:href="#CMR17-35" transform="translate(72.787654 0) scale(0.996264)"/>
      </g>
     </g>
    </g>
    <g id="xtick_3">
     <g id="line2d_3">
      <g>
       <use xlink:href="#m5c0a48d314" x="160.63492" y="243.43532" style="stroke: #000000; stroke-width: 0.8"/>
      </g>
     </g>
     <g id="text_3">
      <!-- $\mathdefault{5.0}$ -->
      <g transform="translate(152.532864 255.929348) scale(0.13 -0.13)">
       <use xlink:href="#CMR17-35" transform="scale(0.996264)"/>
       <use xlink:href="#CMMI12-3a" transform="translate(45.690477 0) scale(0.996264)"/>
       <use xlink:href="#CMR17-30" transform="translate(72.787654 0) scale(0.996264)"/>
      </g>
     </g>
    </g>
    <g id="xtick_4">
     <g id="line2d_4">
      <g>
       <use xlink:href="#m5c0a48d314" x="208.665646" y="243.43532" style="stroke: #000000; stroke-width: 0.8"/>
      </g>
     </g>
     <g id="text_4">
      <!-- $\mathdefault{7.5}$ -->
      <g transform="translate(200.56359 255.929348) scale(0.13 -0.13)">
       <defs>
        <path id="CMR17-37" d="M 2886 3955 
L 2886 4096 
L 1382 4096 
C 634 4096 621 4166 595 4288 
L 480 4288 
L 294 3104 
L 410 3104 
C 429 3226 474 3552 550 3673 
C 589 3724 1062 3724 1171 3724 
L 2579 3724 
L 1869 2670 
C 1395 1961 1069 1003 1069 166 
C 1069 89 1069 -128 1299 -128 
C 1530 -128 1530 89 1530 172 
L 1530 466 
C 1530 1514 1709 2204 2003 2644 
L 2886 3955 
z
" transform="scale(0.015625)"/>
       </defs>
       <use xlink:href="#CMR17-37" transform="scale(0.996264)"/>
       <use xlink:href="#CMMI12-3a" transform="translate(45.690477 0) scale(0.996264)"/>
       <use xlink:href="#CMR17-35" transform="translate(72.787654 0) scale(0.996264)"/>
      </g>
     </g>
    </g>
    <g id="xtick_5">
     <g id="line2d_5">
      <g>
       <use xlink:href="#m5c0a48d314" x="256.696372" y="243.43532" style="stroke: #000000; stroke-width: 0.8"/>
      </g>
     </g>
     <g id="text_5">
      <!-- $\mathdefault{10.0}$ -->
      <g transform="translate(245.423946 255.929348) scale(0.13 -0.13)">
       <defs>
        <path id="CMR17-31" d="M 1702 4083 
C 1702 4217 1696 4224 1606 4224 
C 1357 3927 979 3833 621 3820 
C 602 3820 570 3820 563 3808 
C 557 3795 557 3782 557 3648 
C 755 3648 1088 3686 1344 3839 
L 1344 467 
C 1344 243 1331 166 781 166 
L 589 166 
L 589 0 
C 896 6 1216 12 1523 12 
C 1830 12 2150 6 2458 0 
L 2458 166 
L 2266 166 
C 1715 166 1702 236 1702 467 
L 1702 4083 
z
" transform="scale(0.015625)"/>
       </defs>
       <use xlink:href="#CMR17-31" transform="scale(0.996264)"/>
       <use xlink:href="#CMR17-30" transform="translate(45.690477 0) scale(0.996264)"/>
       <use xlink:href="#CMMI12-3a" transform="translate(91.380954 0) scale(0.996264)"/>
       <use xlink:href="#CMR17-30" transform="translate(118.478131 0) scale(0.996264)"/>
      </g>
     </g>
    </g>
    <g id="text_6">
     <!-- Quasi-energy -->
     <g transform="translate(123.31931 271.441688) scale(0.13 -0.13)">
      <defs>
       <path id="CMSS17-51" d="M 3200 211 
C 3981 848 4096 1711 4096 2201 
C 4096 3541 3219 4544 2214 4544 
C 1210 4544 333 3535 333 2201 
C 333 855 1222 -128 2214 -128 
C 2438 -128 2630 -77 2765 -26 
L 3302 -832 
L 3930 -832 
L 3200 211 
z
M 2528 326 
C 2438 294 2330 275 2214 275 
C 1523 275 858 1003 858 2201 
C 858 3393 1517 4140 2214 4140 
C 2918 4140 3571 3386 3571 2201 
C 3571 1789 3507 1099 2950 571 
L 2490 1222 
L 1939 1222 
L 2528 326 
z
" transform="scale(0.015625)"/>
       <path id="CMSS17-75" d="M 2618 2752 
L 2131 2752 
L 2131 976 
C 2131 500 1786 307 1421 307 
C 998 307 960 448 960 712 
L 960 2752 
L 474 2752 
L 474 680 
C 474 179 646 -64 1088 -64 
C 1306 -64 1798 -13 2144 307 
L 2144 -13 
L 2618 -13 
L 2618 2752 
z
" transform="scale(0.015625)"/>
       <path id="CMSS17-61" d="M 2406 1789 
C 2406 2399 1978 2816 1402 2816 
C 1120 2816 813 2764 461 2559 
L 499 2133 
C 659 2250 934 2438 1395 2438 
C 1722 2438 1920 2185 1920 1782 
L 1920 1536 
C 896 1504 256 1209 256 711 
C 256 452 416 -64 947 -64 
C 1043 -64 1562 -52 1933 224 
L 1933 -13 
L 2406 -13 
L 2406 1789 
z
M 1920 824 
C 1920 711 1920 559 1728 446 
C 1562 339 1350 326 1261 326 
C 941 326 723 503 723 723 
C 723 1165 1722 1209 1920 1216 
L 1920 824 
z
" transform="scale(0.015625)"/>
       <path id="CMSS17-73" d="M 2061 2623 
C 1683 2803 1389 2816 1197 2816 
C 742 2816 198 2655 198 2009 
C 198 1363 902 1222 1094 1183 
C 1389 1126 1715 1062 1715 742 
C 1715 339 1254 339 1171 339 
C 915 339 563 409 243 639 
L 166 211 
C 531 0 883 -64 1178 -64 
C 1965 -64 2163 416 2163 780 
C 2163 1094 1984 1305 1862 1401 
C 1651 1567 1574 1587 1050 1695 
C 960 1708 646 1779 646 2067 
C 646 2431 1050 2431 1139 2431 
C 1555 2431 1811 2303 1984 2207 
L 2061 2623 
z
" transform="scale(0.015625)"/>
       <path id="CMSS17-69" d="M 979 4224 
L 442 4224 
L 442 3686 
L 979 3686 
L 979 4224 
z
M 947 2752 
L 474 2752 
L 474 0 
L 947 0 
L 947 2752 
z
" transform="scale(0.015625)"/>
       <path id="CMSS17-2d" d="M 1664 1216 
L 1664 1587 
L 64 1587 
L 64 1216 
L 1664 1216 
z
" transform="scale(0.015625)"/>
       <path id="CMSS17-65" d="M 2502 1375 
C 2502 1587 2490 2001 2285 2347 
C 2061 2713 1696 2816 1421 2816 
C 755 2816 192 2184 192 1363 
C 192 579 774 -64 1510 -64 
C 1798 -64 2150 19 2470 249 
C 2470 275 2458 414 2451 421 
C 2451 433 2432 629 2432 655 
C 2125 408 1773 326 1517 326 
C 1107 326 666 667 646 1375 
L 2502 1375 
z
M 698 1728 
C 781 2086 1062 2425 1421 2425 
C 1517 2425 1965 2412 2080 1728 
L 698 1728 
z
" transform="scale(0.015625)"/>
       <path id="CMSS17-6e" d="M 2618 1878 
C 2618 2283 2522 2816 1798 2816 
C 1389 2816 1120 2604 941 2386 
L 941 2783 
L 474 2783 
L 474 0 
L 960 0 
L 960 1556 
C 960 1962 1114 2425 1549 2425 
C 2112 2425 2131 2045 2131 1826 
L 2131 0 
L 2618 0 
L 2618 1878 
z
" transform="scale(0.015625)"/>
       <path id="CMSS17-72" d="M 954 1369 
C 954 1974 1395 2379 1958 2392 
L 1958 2816 
C 1549 2809 1165 2604 934 2270 
L 934 2783 
L 480 2783 
L 480 0 
L 954 0 
L 954 1369 
z
" transform="scale(0.015625)"/>
       <path id="CMSS17-67" d="M 2848 2816 
C 2483 2809 2170 2739 1914 2617 
C 1702 2783 1485 2816 1338 2816 
C 781 2816 358 2356 358 1824 
C 358 1481 550 1222 563 1209 
C 448 1049 384 876 384 684 
C 384 460 474 300 544 211 
C 211 6 166 -308 166 -429 
C 166 -896 749 -1280 1498 -1280 
C 2253 -1280 2835 -896 2835 -423 
C 2835 460 1856 467 1587 467 
L 1069 467 
C 973 467 717 467 717 793 
C 717 921 774 1004 781 1011 
C 877 940 1075 832 1338 832 
C 1869 832 2310 1279 2310 1824 
C 2310 2128 2170 2349 2112 2425 
L 2131 2425 
C 2150 2425 2419 2444 2515 2444 
C 2720 2444 2739 2438 2918 2419 
L 2848 2816 
z
M 1338 1184 
C 1120 1184 813 1317 813 1824 
C 813 2375 1165 2463 1331 2463 
C 1549 2463 1856 2330 1856 1824 
C 1856 1272 1504 1184 1338 1184 
z
M 1581 0 
C 1734 0 2381 0 2381 -436 
C 2381 -711 1984 -928 1504 -928 
C 1018 -928 621 -717 621 -429 
C 621 -397 621 0 1062 0 
L 1581 0 
z
" transform="scale(0.015625)"/>
       <path id="CMSS17-79" d="M 2675 2752 
L 2176 2752 
C 1632 1293 1446 701 1434 383 
L 1427 383 
C 1408 695 1126 1459 902 2006 
L 602 2752 
L 83 2752 
L 1216 14 
C 1146 -177 1043 -464 1011 -527 
C 870 -884 774 -884 672 -884 
C 646 -884 442 -877 211 -807 
L 250 -1229 
C 410 -1261 570 -1280 685 -1280 
C 845 -1280 1165 -1280 1459 -495 
L 2675 2752 
z
" transform="scale(0.015625)"/>
      </defs>
      <use xlink:href="#CMSS17-51" transform="scale(0.996264)"/>
      <use xlink:href="#CMSS17-75" transform="translate(69.024255 0) scale(0.996264)"/>
      <use xlink:href="#CMSS17-61" transform="translate(117.229198 0) scale(0.996264)"/>
      <use xlink:href="#CMSS17-73" transform="translate(162.151119 0) scale(0.996264)"/>
      <use xlink:href="#CMSS17-69" transform="translate(198.064661 0) scale(0.996264)"/>
      <use xlink:href="#CMSS17-2d" transform="translate(220.245384 0) scale(0.996264)"/>
      <use xlink:href="#CMSS17-65" transform="translate(251.474497 0) scale(0.996264)"/>
      <use xlink:href="#CMSS17-6e" transform="translate(293.113319 0) scale(0.996264)"/>
      <use xlink:href="#CMSS17-65" transform="translate(341.318262 0) scale(0.996264)"/>
      <use xlink:href="#CMSS17-72" transform="translate(382.957084 0) scale(0.996264)"/>
      <use xlink:href="#CMSS17-67" transform="translate(414.866857 0) scale(0.996264)"/>
      <use xlink:href="#CMSS17-79" transform="translate(461.71048 0) scale(0.996264)"/>
     </g>
    </g>
   </g>
   <g id="matplotlib.axis_2">
    <g id="ytick_1">
     <g id="line2d_6">
      <defs>
       <path id="mc860eaeef3" d="M 0 0 
L 3.5 0 
" style="stroke: #000000; stroke-width: 0.8"/>
      </defs>
      <g>
       <use xlink:href="#mc860eaeef3" x="52.074559" y="243.43532" style="stroke: #000000; stroke-width: 0.8"/>
      </g>
     </g>
     <g id="text_7">
      <!-- $\mathdefault{0}$ -->
      <g transform="translate(42.233819 247.932334) scale(0.13 -0.13)">
       <use xlink:href="#CMR17-30" transform="scale(0.996264)"/>
      </g>
     </g>
    </g>
    <g id="ytick_2">
     <g id="line2d_7">
      <g>
       <use xlink:href="#mc860eaeef3" x="52.074559" y="211.261582" style="stroke: #000000; stroke-width: 0.8"/>
      </g>
     </g>
     <g id="text_8">
      <!-- $\mathdefault{25}$ -->
      <g transform="translate(35.89308 215.758597) scale(0.13 -0.13)">
       <use xlink:href="#CMR17-32" transform="scale(0.996264)"/>
       <use xlink:href="#CMR17-35" transform="translate(45.690477 0) scale(0.996264)"/>
      </g>
     </g>
    </g>
    <g id="ytick_3">
     <g id="line2d_8">
      <g>
       <use xlink:href="#mc860eaeef3" x="52.074559" y="179.087845" style="stroke: #000000; stroke-width: 0.8"/>
      </g>
     </g>
     <g id="text_9">
      <!-- $\mathdefault{50}$ -->
      <g transform="translate(35.89308 183.584859) scale(0.13 -0.13)">
       <use xlink:href="#CMR17-35" transform="scale(0.996264)"/>
       <use xlink:href="#CMR17-30" transform="translate(45.690477 0) scale(0.996264)"/>
      </g>
     </g>
    </g>
    <g id="ytick_4">
     <g id="line2d_9">
      <g>
       <use xlink:href="#mc860eaeef3" x="52.074559" y="146.914108" style="stroke: #000000; stroke-width: 0.8"/>
      </g>
     </g>
     <g id="text_10">
      <!-- $\mathdefault{75}$ -->
      <g transform="translate(35.89308 151.411122) scale(0.13 -0.13)">
       <use xlink:href="#CMR17-37" transform="scale(0.996264)"/>
       <use xlink:href="#CMR17-35" transform="translate(45.690477 0) scale(0.996264)"/>
      </g>
     </g>
    </g>
    <g id="ytick_5">
     <g id="line2d_10">
      <g>
       <use xlink:href="#mc860eaeef3" x="52.074559" y="114.740371" style="stroke: #000000; stroke-width: 0.8"/>
      </g>
     </g>
     <g id="text_11">
      <!-- $\mathdefault{100}$ -->
      <g transform="translate(29.55234 119.237385) scale(0.13 -0.13)">
       <use xlink:href="#CMR17-31" transform="scale(0.996264)"/>
       <use xlink:href="#CMR17-30" transform="translate(45.690477 0) scale(0.996264)"/>
       <use xlink:href="#CMR17-30" transform="translate(91.380954 0) scale(0.996264)"/>
      </g>
     </g>
    </g>
    <g id="ytick_6">
     <g id="line2d_11">
      <g>
       <use xlink:href="#mc860eaeef3" x="52.074559" y="82.566634" style="stroke: #000000; stroke-width: 0.8"/>
      </g>
     </g>
     <g id="text_12">
      <!-- $\mathdefault{125}$ -->
      <g transform="translate(29.55234 87.063648) scale(0.13 -0.13)">
       <use xlink:href="#CMR17-31" transform="scale(0.996264)"/>
       <use xlink:href="#CMR17-32" transform="translate(45.690477 0) scale(0.996264)"/>
       <use xlink:href="#CMR17-35" transform="translate(91.380954 0) scale(0.996264)"/>
      </g>
     </g>
    </g>
    <g id="ytick_7">
     <g id="line2d_12">
      <g>
       <use xlink:href="#mc860eaeef3" x="52.074559" y="50.392897" style="stroke: #000000; stroke-width: 0.8"/>
      </g>
     </g>
     <g id="text_13">
      <!-- $\mathdefault{150}$ -->
      <g transform="translate(29.55234 54.889911) scale(0.13 -0.13)">
       <use xlink:href="#CMR17-31" transform="scale(0.996264)"/>
       <use xlink:href="#CMR17-35" transform="translate(45.690477 0) scale(0.996264)"/>
       <use xlink:href="#CMR17-30" transform="translate(91.380954 0) scale(0.996264)"/>
      </g>
     </g>
    </g>
    <g id="text_14">
     <!-- Count -->
     <g transform="translate(23.034028 154.726525) rotate(-90) scale(0.13 -0.13)">
      <defs>
       <path id="CMSS17-43" d="M 3501 705 
C 3072 416 2874 332 2355 332 
C 1459 332 934 1304 934 2191 
C 934 3137 1472 4070 2381 4070 
C 2790 4070 3059 3954 3386 3748 
L 3475 4255 
C 3168 4409 2778 4480 2387 4480 
C 1158 4480 397 3343 397 2191 
C 397 924 1299 -77 2323 -77 
C 2874 -77 3066 -32 3539 268 
L 3501 705 
z
" transform="scale(0.015625)"/>
       <path id="CMSS17-6f" d="M 2829 1356 
C 2829 2175 2221 2816 1504 2816 
C 768 2816 173 2156 173 1356 
C 173 544 787 -64 1498 -64 
C 2227 -64 2829 563 2829 1356 
z
M 1504 339 
C 1050 339 659 710 659 1407 
C 659 2150 1114 2425 1498 2425 
C 1914 2425 2342 2124 2342 1407 
C 2342 684 1926 339 1504 339 
z
" transform="scale(0.015625)"/>
       <path id="CMSS17-74" d="M 1069 2380 
L 1901 2380 
L 1901 2752 
L 1069 2752 
L 1069 3520 
L 614 3520 
L 614 2752 
L 109 2752 
L 109 2380 
L 602 2380 
L 602 751 
C 602 384 685 -64 1107 -64 
C 1427 -64 1722 25 2003 172 
L 1901 551 
C 1747 416 1562 339 1363 339 
C 1082 339 1069 699 1069 860 
L 1069 2380 
z
" transform="scale(0.015625)"/>
      </defs>
      <use xlink:href="#CMSS17-43" transform="scale(0.996264)"/>
      <use xlink:href="#CMSS17-6f" transform="translate(59.855772 0) scale(0.996264)"/>
      <use xlink:href="#CMSS17-75" transform="translate(106.699395 0) scale(0.996264)"/>
      <use xlink:href="#CMSS17-6e" transform="translate(154.904338 0) scale(0.996264)"/>
      <use xlink:href="#CMSS17-74" transform="translate(203.109281 0) scale(0.996264)"/>
     </g>
    </g>
   </g>
   <g id="patch_4">
    <path d="M 52.074559 243.43532 
L 52.074559 33.984291 
" style="fill: none; stroke: #000000; stroke-width: 0.8; stroke-linejoin: miter; stroke-linecap: square"/>
   </g>
   <g id="patch_5">
    <path d="M 262.795133 243.43532 
L 262.795133 33.984291 
" style="fill: none; stroke: #000000; stroke-width: 0.8; stroke-linejoin: miter; stroke-linecap: square"/>
   </g>
   <g id="patch_6">
    <path d="M 52.074559 243.43532 
L 262.795133 243.43532 
" style="fill: none; stroke: #000000; stroke-width: 0.8; stroke-linejoin: miter; stroke-linecap: square"/>
   </g>
   <g id="patch_7">
    <path d="M 52.074559 33.984291 
L 262.795133 33.984291 
" style="fill: none; stroke: #000000; stroke-width: 0.8; stroke-linejoin: miter; stroke-linecap: square"/>
   </g>
   <g id="text_15">
    <!-- $\mathcal{J}_0\left(\frac{4 g_0}{\omega}\right)=$-1.438192059821927e-16 -->
    <g transform="translate(44.68467 27.984291) scale(0.156 -0.156)">
     <defs>
      <path id="CMSY10-4a" d="M 3936 4352 
C 3322 4352 2790 4057 2496 3847 
C 1798 3349 1722 2813 1722 2800 
C 1722 2755 1760 2755 1786 2755 
C 1933 2755 2221 2934 2259 3049 
C 2470 3725 2931 3999 3558 3999 
L 4410 3999 
C 3706 3438 3411 2474 2989 815 
C 2835 222 2445 -416 1798 -416 
C 1299 -416 845 -85 845 471 
C 845 598 877 707 877 732 
C 877 751 870 790 813 790 
C 774 790 627 758 448 624 
C 371 566 301 503 301 203 
C 301 -385 749 -768 1376 -768 
C 1920 -768 2438 -461 2752 -193 
C 3341 311 3456 777 3571 1230 
C 3808 2155 4115 3317 4595 3853 
C 4698 3968 4723 3987 4870 3999 
C 5158 4019 5376 4236 5376 4307 
C 5376 4345 5370 4352 5229 4352 
L 3936 4352 
z
" transform="scale(0.015625)"/>
      <path id="CMEX10-10" d="M 3296 -11194 
C 3309 -11200 3366 -11264 3373 -11264 
L 3514 -11264 
C 3533 -11264 3584 -11258 3584 -11200 
C 3584 -11175 3571 -11162 3558 -11143 
C 3328 -10912 2982 -10560 2586 -9856 
C 1894 -8626 1638 -7045 1638 -5508 
C 1638 -2665 2445 -994 3565 140 
C 3584 160 3584 179 3584 192 
C 3584 256 3539 256 3462 256 
C 3379 256 3366 256 3309 204 
C 2701 -321 2016 -1211 1574 -2562 
C 1299 -3408 1152 -4439 1152 -5502 
C 1152 -7019 1427 -8735 2432 -10221 
C 2605 -10471 2842 -10733 2842 -10739 
C 2906 -10816 2995 -10919 3046 -10964 
L 3296 -11194 
z
" transform="scale(0.015625)"/>
      <path id="CMR17-34" d="M 2150 4147 
C 2150 4281 2144 4288 2029 4288 
L 128 1254 
L 128 1088 
L 1779 1088 
L 1779 460 
C 1779 230 1766 166 1318 166 
L 1197 166 
L 1197 0 
C 1402 12 1747 12 1965 12 
C 2182 12 2528 12 2733 0 
L 2733 166 
L 2611 166 
C 2163 166 2150 230 2150 460 
L 2150 1088 
L 2803 1088 
L 2803 1254 
L 2150 1254 
L 2150 4147 
z
M 1798 3723 
L 1798 1254 
L 256 1254 
L 1798 3723 
z
" transform="scale(0.015625)"/>
      <path id="CMMI12-67" d="M 2163 811 
C 2138 708 2125 683 2042 587 
C 1779 249 1510 128 1312 128 
C 1101 128 902 293 902 734 
C 902 1072 1094 1787 1235 2075 
C 1421 2432 1709 2687 1978 2687 
C 2400 2687 2483 2164 2483 2126 
L 2464 2036 
L 2163 811 
z
M 2560 2394 
C 2477 2579 2298 2816 1978 2816 
C 1280 2816 486 1941 486 989 
C 486 325 890 0 1299 0 
C 1638 0 1939 268 2054 396 
L 1914 -176 
C 1824 -520 1786 -677 1555 -896 
C 1293 -1152 1050 -1152 909 -1152 
C 717 -1152 557 -1140 397 -1090 
C 602 -1034 653 -858 653 -789 
C 653 -689 576 -589 435 -589 
C 282 -589 115 -714 115 -921 
C 115 -1178 378 -1280 922 -1280 
C 1747 -1280 2176 -758 2259 -420 
L 2970 2426 
C 2989 2502 2989 2515 2989 2528 
C 2989 2617 2918 2688 2822 2688 
C 2669 2688 2579 2560 2560 2388 
L 2560 2394 
z
" transform="scale(0.015625)"/>
      <path id="CMMI12-21" d="M 3802 2406 
C 3802 2592 3750 2828 3526 2828 
C 3398 2828 3251 2668 3251 2540 
C 3251 2483 3277 2444 3328 2387 
C 3424 2278 3546 2105 3546 1804 
C 3546 1574 3405 1209 3302 1011 
C 3123 659 2829 358 2496 358 
C 2093 358 1939 614 1869 972 
C 1939 1139 2086 1555 2086 1721 
C 2086 1792 2061 1849 1978 1849 
C 1933 1849 1882 1824 1850 1772 
C 1760 1632 1677 1126 1683 992 
C 1562 755 1216 358 806 358 
C 378 358 262 736 262 1100 
C 262 1766 678 2348 794 2508 
C 858 2604 902 2668 902 2681 
C 902 2726 877 2796 819 2796 
C 717 2796 685 2713 634 2636 
C 307 2131 77 1420 77 806 
C 77 409 224 -64 704 -64 
C 1235 -64 1568 390 1702 633 
C 1754 275 1946 -64 2413 -64 
C 2899 -64 3206 364 3437 883 
C 3603 1254 3802 2054 3802 2406 
z
" transform="scale(0.015625)"/>
      <path id="CMEX10-11" d="M 2662 -5502 
C 2662 -3664 2234 -1711 973 -270 
C 883 -168 646 82 493 217 
C 448 256 435 256 352 256 
C 288 256 230 256 230 192 
C 230 166 256 140 269 128 
C 486 -97 832 -449 1229 -1154 
C 1920 -2383 2176 -3965 2176 -5502 
C 2176 -8281 1408 -9977 256 -11149 
C 243 -11162 230 -11181 230 -11200 
C 230 -11264 288 -11264 352 -11264 
C 435 -11264 448 -11264 506 -11213 
C 1114 -10688 1798 -9798 2240 -8447 
C 2522 -7570 2662 -6533 2662 -5502 
z
" transform="scale(0.015625)"/>
      <path id="CMR17-3d" d="M 4115 2048 
C 4211 2048 4307 2048 4307 2156 
C 4307 2272 4198 2272 4090 2272 
L 512 2272 
C 403 2272 294 2272 294 2156 
C 294 2048 390 2048 486 2048 
L 4115 2048 
z
M 4090 927 
C 4198 927 4307 927 4307 1043 
C 4307 1152 4211 1152 4115 1152 
L 486 1152 
C 390 1152 294 1152 294 1043 
C 294 927 403 927 512 927 
L 4090 927 
z
" transform="scale(0.015625)"/>
      <path id="CMSS17-31" d="M 1818 4288 
L 1696 4288 
C 1350 3949 947 3902 538 3891 
L 538 3520 
C 723 3526 1024 3539 1325 3673 
L 1325 371 
L 570 371 
L 570 0 
L 2573 0 
L 2573 371 
L 1818 371 
L 1818 4288 
z
" transform="scale(0.015625)"/>
      <path id="CMSS17-2e" d="M 1088 512 
L 576 512 
L 576 0 
L 1088 0 
L 1088 512 
z
" transform="scale(0.015625)"/>
      <path id="CMSS17-34" d="M 2253 1088 
L 2835 1088 
L 2835 1478 
L 2253 1478 
L 2253 4224 
L 1690 4224 
L 166 1478 
L 166 1088 
L 1747 1088 
L 1747 0 
L 2253 0 
L 2253 1088 
z
M 659 1478 
C 1030 2139 1766 3474 1766 3927 
L 1766 1478 
L 659 1478 
z
" transform="scale(0.015625)"/>
      <path id="CMSS17-33" d="M 1005 2060 
L 1440 2060 
C 2042 2060 2214 1532 2214 1164 
C 2214 662 1933 268 1472 268 
C 1114 268 608 449 320 926 
C 275 700 275 687 250 533 
C 550 89 1037 -128 1485 -128 
C 2214 -128 2752 481 2752 1158 
C 2752 1667 2400 2092 1920 2252 
C 2304 2463 2586 2860 2586 3321 
C 2586 3859 2093 4288 1491 4288 
C 941 4288 512 3948 333 3583 
C 378 3519 493 3334 550 3238 
C 691 3615 1056 3897 1485 3897 
C 1843 3897 2080 3660 2080 3321 
C 2080 2969 1856 2585 1478 2496 
C 1453 2496 1056 2457 1005 2451 
L 1005 2060 
z
" transform="scale(0.015625)"/>
      <path id="CMSS17-38" d="M 1933 2246 
C 2419 2406 2669 2793 2669 3174 
C 2669 3774 2157 4288 1504 4288 
C 826 4288 333 3755 333 3174 
C 333 2799 576 2412 1069 2246 
C 442 2003 250 1516 250 1152 
C 250 448 819 -128 1498 -128 
C 2202 -128 2752 460 2752 1152 
C 2752 1574 2502 2022 1933 2246 
z
M 1504 2438 
C 1075 2438 787 2728 787 3167 
C 787 3613 1075 3897 1504 3897 
C 1901 3897 2214 3639 2214 3167 
C 2214 2703 1907 2438 1504 2438 
z
M 1504 268 
C 1139 268 749 518 749 1158 
C 749 1817 1184 2048 1498 2048 
C 1843 2048 2253 1804 2253 1158 
C 2253 492 1830 268 1504 268 
z
" transform="scale(0.015625)"/>
      <path id="CMSS17-39" d="M 435 172 
C 614 19 845 -128 1235 -128 
C 2010 -128 2752 738 2752 2136 
C 2752 3987 1952 4288 1523 4288 
C 1094 4288 819 4095 582 3789 
C 301 3438 250 3125 250 2761 
C 250 2327 326 2059 506 1753 
C 749 1356 973 1273 1222 1273 
C 1600 1273 1978 1459 2234 1778 
C 2189 908 1798 268 1235 268 
C 1005 268 819 340 634 516 
L 435 172 
z
M 2214 2774 
C 2221 2729 2221 2646 2221 2621 
C 2221 2085 1914 1664 1466 1664 
C 1171 1664 1018 1817 902 2015 
C 762 2263 755 2506 755 2761 
C 755 3010 755 3284 934 3559 
C 1069 3757 1235 3897 1523 3897 
C 2112 3897 2208 3036 2214 2774 
z
" transform="scale(0.015625)"/>
      <path id="CMSS17-32" d="M 1651 1353 
C 1830 1538 2099 1761 2285 1984 
C 2464 2201 2701 2507 2701 2953 
C 2701 3655 2227 4288 1421 4288 
C 787 4288 422 3891 250 3272 
L 499 2928 
C 640 3508 838 3878 1338 3878 
C 1888 3878 2195 3431 2195 2940 
C 2195 2354 1747 1901 1408 1563 
C 1030 1187 659 805 301 409 
L 301 0 
L 2701 0 
L 2701 435 
L 1613 435 
C 1536 435 1459 428 1382 428 
L 742 428 
L 742 435 
L 1651 1353 
z
" transform="scale(0.015625)"/>
      <path id="CMSS17-30" d="M 2758 2073 
C 2758 2439 2752 3120 2490 3647 
C 2227 4153 1805 4288 1504 4288 
C 1069 4288 698 4031 506 3621 
C 301 3191 243 2748 243 2073 
C 243 1611 262 1046 493 551 
C 755 6 1197 -128 1498 -128 
C 1894 -128 2278 83 2496 525 
C 2720 988 2758 1495 2758 2073 
z
M 1498 262 
C 1011 262 864 821 819 1007 
C 742 1328 730 1636 730 2144 
C 730 2542 730 2992 851 3345 
C 998 3756 1254 3897 1498 3897 
C 1971 3897 2125 3422 2176 3255 
C 2272 2915 2272 2516 2272 2144 
C 2272 1546 2272 262 1498 262 
z
" transform="scale(0.015625)"/>
      <path id="CMSS17-35" d="M 934 3814 
L 2502 3814 
L 2502 4224 
L 467 4224 
L 467 1830 
L 896 1830 
C 1011 2103 1248 2304 1555 2304 
C 1843 2304 2163 2044 2163 1299 
C 2163 502 1709 268 1376 268 
C 966 268 589 521 422 871 
L 218 508 
C 512 51 992 -128 1376 -128 
C 2118 -128 2701 508 2701 1286 
C 2701 2083 2182 2694 1562 2694 
C 1338 2694 1120 2617 934 2464 
L 934 3814 
z
" transform="scale(0.015625)"/>
      <path id="CMSS17-37" d="M 1389 3788 
C 1466 3788 1542 3795 1619 3795 
L 2355 3795 
C 1440 2715 915 1350 915 -64 
L 1427 -64 
C 1427 1305 1875 2695 2752 3807 
L 2752 4224 
L 250 4224 
L 250 3788 
L 1389 3788 
z
" transform="scale(0.015625)"/>
      <path id="CMSS17-36" d="M 2496 4159 
C 2227 4268 2035 4288 1856 4288 
C 1024 4288 250 3408 250 2023 
C 250 268 986 -128 1510 -128 
C 1798 -128 2086 -39 2362 281 
C 2643 619 2752 900 2752 1392 
C 2752 2183 2362 2886 1779 2886 
C 1357 2886 992 2662 768 2381 
C 832 3290 1254 3897 1862 3897 
C 2029 3897 2246 3871 2496 3760 
L 2496 4159 
z
M 774 1372 
C 774 1423 774 1455 781 1551 
C 781 2049 1069 2496 1536 2496 
C 1837 2496 1990 2336 2106 2138 
C 2240 1889 2246 1653 2246 1392 
C 2246 1143 2246 894 2099 638 
C 1978 441 1818 268 1510 268 
C 902 268 800 1117 774 1372 
z
" transform="scale(0.015625)"/>
     </defs>
     <use xlink:href="#CMSY10-4a" transform="scale(0.996264)"/>
     <use xlink:href="#CMR17-30" transform="translate(67.524797 -14.943915) scale(0.697382)"/>
     <use xlink:href="#CMEX10-10" transform="translate(116.610516 110.586308) scale(0.996264)"/>
     <use xlink:href="#CMR17-34" transform="translate(177.30532 44.444174) scale(0.697382)"/>
     <use xlink:href="#CMMI12-67" transform="translate(209.288502 44.444174) scale(0.697382)"/>
     <use xlink:href="#CMR17-30" transform="translate(241.985985 33.983478) scale(0.498132)"/>
     <use xlink:href="#CMMI12-21" transform="translate(198.806022 -34.355253) scale(0.697382)"/>
     <use xlink:href="#CMEX10-11" transform="translate(266.52487 110.586308) scale(0.996264)"/>
     <use xlink:href="#CMR17-3d" transform="translate(353.698168 0) scale(0.996264)"/>
     <use xlink:href="#CMSS17-2d" transform="translate(425.412956 0) scale(0.996264)"/>
     <use xlink:href="#CMSS17-31" transform="translate(456.642069 0) scale(0.996264)"/>
     <use xlink:href="#CMSS17-2e" transform="translate(503.485693 0) scale(0.996264)"/>
     <use xlink:href="#CMSS17-34" transform="translate(529.509898 0) scale(0.996264)"/>
     <use xlink:href="#CMSS17-33" transform="translate(576.353521 0) scale(0.996264)"/>
     <use xlink:href="#CMSS17-38" transform="translate(623.197145 0) scale(0.996264)"/>
     <use xlink:href="#CMSS17-31" transform="translate(670.040768 0) scale(0.996264)"/>
     <use xlink:href="#CMSS17-39" transform="translate(716.884392 0) scale(0.996264)"/>
     <use xlink:href="#CMSS17-32" transform="translate(763.728015 0) scale(0.996264)"/>
     <use xlink:href="#CMSS17-30" transform="translate(810.571639 0) scale(0.996264)"/>
     <use xlink:href="#CMSS17-35" transform="translate(857.415262 0) scale(0.996264)"/>
     <use xlink:href="#CMSS17-39" transform="translate(904.258886 0) scale(0.996264)"/>
     <use xlink:href="#CMSS17-38" transform="translate(951.102509 0) scale(0.996264)"/>
     <use xlink:href="#CMSS17-32" transform="translate(997.946133 0) scale(0.996264)"/>
     <use xlink:href="#CMSS17-31" transform="translate(1044.789756 0) scale(0.996264)"/>
     <use xlink:href="#CMSS17-39" transform="translate(1091.63338 0) scale(0.996264)"/>
     <use xlink:href="#CMSS17-32" transform="translate(1138.477003 0) scale(0.996264)"/>
     <use xlink:href="#CMSS17-37" transform="translate(1185.320627 0) scale(0.996264)"/>
     <use xlink:href="#CMSS17-65" transform="translate(1232.16425 0) scale(0.996264)"/>
     <use xlink:href="#CMSS17-2d" transform="translate(1273.803072 0) scale(0.996264)"/>
     <use xlink:href="#CMSS17-31" transform="translate(1305.032185 0) scale(0.996264)"/>
     <use xlink:href="#CMSS17-36" transform="translate(1351.875809 0) scale(0.996264)"/>
     <path d="M 177.30532 22.914133 
L 265.329356 22.914133 
L 265.329356 26.899083 
L 177.30532 26.899083 
L 177.30532 22.914133 
z
"/>
    </g>
   </g>
  </g>
  <g id="axes_2">
   <g id="patch_8">
    <path d="M 278.037279 243.43532 
L 488.757854 243.43532 
L 488.757854 33.984291 
L 278.037279 33.984291 
z
" style="fill: #ffffff"/>
   </g>
   <g id="patch_9">
    <path d="M 287.615487 243.43532 
L 287.615487 222.844128 
L 297.193695 222.844128 
L 297.193695 197.105138 
L 306.771903 197.105138 
L 306.771903 197.105138 
L 316.350111 197.105138 
L 316.350111 190.670391 
L 325.928319 190.670391 
L 325.928319 190.670391 
L 335.506527 190.670391 
L 335.506527 182.948694 
L 345.084735 182.948694 
L 345.084735 200.965987 
L 354.662943 200.965987 
L 354.662943 216.40938 
L 364.241151 216.40938 
L 364.241151 193.24429 
L 373.819359 193.24429 
L 373.819359 199.679037 
L 383.397567 199.679037 
L 383.397567 186.809542 
L 392.975775 186.809542 
L 392.975775 179.087845 
L 402.553982 179.087845 
L 402.553982 222.844128 
L 412.13219 222.844128 
L 412.13219 199.679037 
L 421.710398 199.679037 
L 421.710398 202.252936 
L 431.288606 202.252936 
L 431.288606 197.105138 
L 440.866814 197.105138 
L 440.866814 204.826835 
L 450.445022 204.826835 
L 450.445022 217.69633 
L 460.02323 217.69633 
L 460.02323 217.69633 
L 469.601438 217.69633 
L 469.601438 225.418027 
L 479.179646 225.418027 
L 479.179646 243.43532 
L 469.601438 243.43532 
L 469.601438 243.43532 
L 460.02323 243.43532 
L 460.02323 243.43532 
L 450.445022 243.43532 
L 450.445022 243.43532 
L 440.866814 243.43532 
L 440.866814 243.43532 
L 431.288606 243.43532 
L 431.288606 243.43532 
L 421.710398 243.43532 
L 421.710398 243.43532 
L 412.13219 243.43532 
L 412.13219 243.43532 
L 402.553982 243.43532 
L 402.553982 243.43532 
L 392.975775 243.43532 
L 392.975775 243.43532 
L 383.397567 243.43532 
L 383.397567 243.43532 
L 373.819359 243.43532 
L 373.819359 243.43532 
L 364.241151 243.43532 
L 364.241151 243.43532 
L 354.662943 243.43532 
L 354.662943 243.43532 
L 345.084735 243.43532 
L 345.084735 243.43532 
L 335.506527 243.43532 
L 335.506527 243.43532 
L 325.928319 243.43532 
L 325.928319 243.43532 
L 316.350111 243.43532 
L 316.350111 243.43532 
L 306.771903 243.43532 
L 306.771903 243.43532 
L 297.193695 243.43532 
L 297.193695 243.43532 
z
" clip-path="url(#p42ea6c6f9a)" style="fill: #ff7f0e; opacity: 0.7"/>
   </g>
   <g id="matplotlib.axis_3">
    <g id="xtick_6">
     <g id="line2d_13">
      <g>
       <use xlink:href="#m5c0a48d314" x="290.536188" y="243.43532" style="stroke: #000000; stroke-width: 0.8"/>
      </g>
     </g>
     <g id="text_16">
      <!-- $\mathdefault{0.0}$ -->
      <g transform="translate(282.434132 255.929348) scale(0.13 -0.13)">
       <use xlink:href="#CMR17-30" transform="scale(0.996264)"/>
       <use xlink:href="#CMMI12-3a" transform="translate(45.690477 0) scale(0.996264)"/>
       <use xlink:href="#CMR17-30" transform="translate(72.787654 0) scale(0.996264)"/>
      </g>
     </g>
    </g>
    <g id="xtick_7">
     <g id="line2d_14">
      <g>
       <use xlink:href="#m5c0a48d314" x="338.566914" y="243.43532" style="stroke: #000000; stroke-width: 0.8"/>
      </g>
     </g>
     <g id="text_17">
      <!-- $\mathdefault{2.5}$ -->
      <g transform="translate(330.464858 255.929348) scale(0.13 -0.13)">
       <use xlink:href="#CMR17-32" transform="scale(0.996264)"/>
       <use xlink:href="#CMMI12-3a" transform="translate(45.690477 0) scale(0.996264)"/>
       <use xlink:href="#CMR17-35" transform="translate(72.787654 0) scale(0.996264)"/>
      </g>
     </g>
    </g>
    <g id="xtick_8">
     <g id="line2d_15">
      <g>
       <use xlink:href="#m5c0a48d314" x="386.597641" y="243.43532" style="stroke: #000000; stroke-width: 0.8"/>
      </g>
     </g>
     <g id="text_18">
      <!-- $\mathdefault{5.0}$ -->
      <g transform="translate(378.495585 255.929348) scale(0.13 -0.13)">
       <use xlink:href="#CMR17-35" transform="scale(0.996264)"/>
       <use xlink:href="#CMMI12-3a" transform="translate(45.690477 0) scale(0.996264)"/>
       <use xlink:href="#CMR17-30" transform="translate(72.787654 0) scale(0.996264)"/>
      </g>
     </g>
    </g>
    <g id="xtick_9">
     <g id="line2d_16">
      <g>
       <use xlink:href="#m5c0a48d314" x="434.628367" y="243.43532" style="stroke: #000000; stroke-width: 0.8"/>
      </g>
     </g>
     <g id="text_19">
      <!-- $\mathdefault{7.5}$ -->
      <g transform="translate(426.526311 255.929348) scale(0.13 -0.13)">
       <use xlink:href="#CMR17-37" transform="scale(0.996264)"/>
       <use xlink:href="#CMMI12-3a" transform="translate(45.690477 0) scale(0.996264)"/>
       <use xlink:href="#CMR17-35" transform="translate(72.787654 0) scale(0.996264)"/>
      </g>
     </g>
    </g>
    <g id="xtick_10">
     <g id="line2d_17">
      <g>
       <use xlink:href="#m5c0a48d314" x="482.659093" y="243.43532" style="stroke: #000000; stroke-width: 0.8"/>
      </g>
     </g>
     <g id="text_20">
      <!-- $\mathdefault{10.0}$ -->
      <g transform="translate(471.386667 255.929348) scale(0.13 -0.13)">
       <use xlink:href="#CMR17-31" transform="scale(0.996264)"/>
       <use xlink:href="#CMR17-30" transform="translate(45.690477 0) scale(0.996264)"/>
       <use xlink:href="#CMMI12-3a" transform="translate(91.380954 0) scale(0.996264)"/>
       <use xlink:href="#CMR17-30" transform="translate(118.478131 0) scale(0.996264)"/>
      </g>
     </g>
    </g>
    <g id="text_21">
     <!-- Quasi-energy -->
     <g transform="translate(349.282031 271.441688) scale(0.13 -0.13)">
      <use xlink:href="#CMSS17-51" transform="scale(0.996264)"/>
      <use xlink:href="#CMSS17-75" transform="translate(69.024255 0) scale(0.996264)"/>
      <use xlink:href="#CMSS17-61" transform="translate(117.229198 0) scale(0.996264)"/>
      <use xlink:href="#CMSS17-73" transform="translate(162.151119 0) scale(0.996264)"/>
      <use xlink:href="#CMSS17-69" transform="translate(198.064661 0) scale(0.996264)"/>
      <use xlink:href="#CMSS17-2d" transform="translate(220.245384 0) scale(0.996264)"/>
      <use xlink:href="#CMSS17-65" transform="translate(251.474497 0) scale(0.996264)"/>
      <use xlink:href="#CMSS17-6e" transform="translate(293.113319 0) scale(0.996264)"/>
      <use xlink:href="#CMSS17-65" transform="translate(341.318262 0) scale(0.996264)"/>
      <use xlink:href="#CMSS17-72" transform="translate(382.957084 0) scale(0.996264)"/>
      <use xlink:href="#CMSS17-67" transform="translate(414.866857 0) scale(0.996264)"/>
      <use xlink:href="#CMSS17-79" transform="translate(461.71048 0) scale(0.996264)"/>
     </g>
    </g>
   </g>
   <g id="matplotlib.axis_4">
    <g id="ytick_8">
     <g id="line2d_18">
      <g>
       <use xlink:href="#mc860eaeef3" x="278.037279" y="243.43532" style="stroke: #000000; stroke-width: 0.8"/>
      </g>
     </g>
    </g>
    <g id="ytick_9">
     <g id="line2d_19">
      <g>
       <use xlink:href="#mc860eaeef3" x="278.037279" y="211.261582" style="stroke: #000000; stroke-width: 0.8"/>
      </g>
     </g>
    </g>
    <g id="ytick_10">
     <g id="line2d_20">
      <g>
       <use xlink:href="#mc860eaeef3" x="278.037279" y="179.087845" style="stroke: #000000; stroke-width: 0.8"/>
      </g>
     </g>
    </g>
    <g id="ytick_11">
     <g id="line2d_21">
      <g>
       <use xlink:href="#mc860eaeef3" x="278.037279" y="146.914108" style="stroke: #000000; stroke-width: 0.8"/>
      </g>
     </g>
    </g>
    <g id="ytick_12">
     <g id="line2d_22">
      <g>
       <use xlink:href="#mc860eaeef3" x="278.037279" y="114.740371" style="stroke: #000000; stroke-width: 0.8"/>
      </g>
     </g>
    </g>
    <g id="ytick_13">
     <g id="line2d_23">
      <g>
       <use xlink:href="#mc860eaeef3" x="278.037279" y="82.566634" style="stroke: #000000; stroke-width: 0.8"/>
      </g>
     </g>
    </g>
    <g id="ytick_14">
     <g id="line2d_24">
      <g>
       <use xlink:href="#mc860eaeef3" x="278.037279" y="50.392897" style="stroke: #000000; stroke-width: 0.8"/>
      </g>
     </g>
    </g>
   </g>
   <g id="patch_10">
    <path d="M 278.037279 243.43532 
L 278.037279 33.984291 
" style="fill: none; stroke: #000000; stroke-width: 0.8; stroke-linejoin: miter; stroke-linecap: square"/>
   </g>
   <g id="patch_11">
    <path d="M 488.757854 243.43532 
L 488.757854 33.984291 
" style="fill: none; stroke: #000000; stroke-width: 0.8; stroke-linejoin: miter; stroke-linecap: square"/>
   </g>
   <g id="patch_12">
    <path d="M 278.037279 243.43532 
L 488.757854 243.43532 
" style="fill: none; stroke: #000000; stroke-width: 0.8; stroke-linejoin: miter; stroke-linecap: square"/>
   </g>
   <g id="patch_13">
    <path d="M 278.037279 33.984291 
L 488.757854 33.984291 
" style="fill: none; stroke: #000000; stroke-width: 0.8; stroke-linejoin: miter; stroke-linecap: square"/>
   </g>
   <g id="text_22">
    <!-- $\mathcal{J}_0\left(\frac{4 g_0}{\omega}\right)=$0.7651976865579666 -->
    <g transform="translate(282.906154 27.984291) scale(0.156 -0.156)">
     <use xlink:href="#CMSY10-4a" transform="scale(0.996264)"/>
     <use xlink:href="#CMR17-30" transform="translate(67.524797 -14.943915) scale(0.697382)"/>
     <use xlink:href="#CMEX10-10" transform="translate(116.610516 110.586308) scale(0.996264)"/>
     <use xlink:href="#CMR17-34" transform="translate(177.30532 44.444174) scale(0.697382)"/>
     <use xlink:href="#CMMI12-67" transform="translate(209.288502 44.444174) scale(0.697382)"/>
     <use xlink:href="#CMR17-30" transform="translate(241.985985 33.983478) scale(0.498132)"/>
     <use xlink:href="#CMMI12-21" transform="translate(198.806022 -34.355253) scale(0.697382)"/>
     <use xlink:href="#CMEX10-11" transform="translate(266.52487 110.586308) scale(0.996264)"/>
     <use xlink:href="#CMR17-3d" transform="translate(353.698168 0) scale(0.996264)"/>
     <use xlink:href="#CMSS17-30" transform="translate(425.412956 0) scale(0.996264)"/>
     <use xlink:href="#CMSS17-2e" transform="translate(472.25658 0) scale(0.996264)"/>
     <use xlink:href="#CMSS17-37" transform="translate(498.280785 0) scale(0.996264)"/>
     <use xlink:href="#CMSS17-36" transform="translate(545.124408 0) scale(0.996264)"/>
     <use xlink:href="#CMSS17-35" transform="translate(591.968032 0) scale(0.996264)"/>
     <use xlink:href="#CMSS17-31" transform="translate(638.811655 0) scale(0.996264)"/>
     <use xlink:href="#CMSS17-39" transform="translate(685.655279 0) scale(0.996264)"/>
     <use xlink:href="#CMSS17-37" transform="translate(732.498902 0) scale(0.996264)"/>
     <use xlink:href="#CMSS17-36" transform="translate(779.342526 0) scale(0.996264)"/>
     <use xlink:href="#CMSS17-38" transform="translate(826.186149 0) scale(0.996264)"/>
     <use xlink:href="#CMSS17-36" transform="translate(873.029773 0) scale(0.996264)"/>
     <use xlink:href="#CMSS17-35" transform="translate(919.873397 0) scale(0.996264)"/>
     <use xlink:href="#CMSS17-35" transform="translate(966.71702 0) scale(0.996264)"/>
     <use xlink:href="#CMSS17-37" transform="translate(1013.560644 0) scale(0.996264)"/>
     <use xlink:href="#CMSS17-39" transform="translate(1060.404267 0) scale(0.996264)"/>
     <use xlink:href="#CMSS17-36" transform="translate(1107.247891 0) scale(0.996264)"/>
     <use xlink:href="#CMSS17-36" transform="translate(1154.091514 0) scale(0.996264)"/>
     <use xlink:href="#CMSS17-36" transform="translate(1200.935138 0) scale(0.996264)"/>
     <path d="M 177.30532 22.914133 
L 265.329356 22.914133 
L 265.329356 26.899083 
L 177.30532 26.899083 
L 177.30532 22.914133 
z
"/>
    </g>
   </g>
  </g>
 </g>
 <defs>
  <clipPath id="pbe9c4b44e3">
   <rect x="52.074559" y="33.984291" width="210.720575" height="209.451029"/>
  </clipPath>
  <clipPath id="p42ea6c6f9a">
   <rect x="278.037279" y="33.984291" width="210.720575" height="209.451029"/>
  </clipPath>
 </defs>
</svg>
